# xmcd CD database file
#
# Track frame offsets:
#	150
#	11280
#	31785
#	59374
#	90384
#	105912
#	134288
#	156363
#	170772
#	199564
#	216559
#	243686
#	263456
#	276689
#
# Disc length: 3870 seconds
#
# Revision: 0
# Processed by: cddbd v1.5.1PL2 Copyright (c) Steve Scherf et al.
# Submitted via: CDex 1.50beta9
#
DISCID=c00f1c0e
DTITLE=海上自衛隊東京音楽隊 - 音楽で綴る日本海海戦100周年
DYEAR=2005
DGENRE=Easy Listening
TTITLE0=テーマ「美しき天然」
TTITLE1=行進曲「敷島艦」
TTITLE2=唱歌「美しき天然」(歌唱付)
TTITLE3=描写曲「浦塩沖氷海海戦」
TTITLE4=小学唱歌「広瀬中佐」(歌唱付)
TTITLE5=海軍軍歌「上村将軍」(歌唱付)
TTITLE6=ロシア民謡「トロイカ」「カリンカ」
TTITLE7=常備艦隊法令から砲戦距離通報ラッパ符(解説付)
TTITLE8=海軍軍歌「日本海海戦」(歌唱付)
TTITLE9=「東京湾凱旋観艦式記念行進曲」
TTITLE10=軍歌「護国の軍神東郷元帥」(歌唱付)
TTITLE11=「海軍記念日を称ふる歌」(歌唱付)
TTITLE12=「精鋭なる我が海軍」(歌唱付)
TTITLE13=アンコール 行進曲「軍艦」(歌唱付)
EXTD=YEAR: 2005
EXTT0=
EXTT1=
EXTT2=
EXTT3=
EXTT4=
EXTT5=
EXTT6=
EXTT7=
EXTT8=
EXTT9=
EXTT10=
EXTT11=
EXTT12=
EXTT13=
PLAYORDER=
